<svg xmlns="http://www.w3.org/2000/svg" version="1.1" xmlns:xlink="http://www.w3.org/1999/xlink" xmlns:svgjs="http://svgjs.dev/svgjs" width="128" height="128" viewBox="0 0 128 128"><g transform="matrix(0.8046875,0,0,0.8046875,12.333870967741937,14.641738883072868)"><svg viewBox="0 0 155 150" data-background-color="#ffffff" preserveAspectRatio="xMidYMid meet" height="123" width="128" xmlns="http://www.w3.org/2000/svg" xmlns:xlink="http://www.w3.org/1999/xlink"><g id="tight-bounds" transform="matrix(1,0,0,1,0.25,-0.1970468509747434)"><svg viewBox="0 0 154.5 150.3932250469077" height="150.3932250469077" width="154.5"><g><svg viewBox="0 0 154.5 150.3932250469077" height="150.3932250469077" width="154.5"><g><svg viewBox="0 0 154.5 150.3932250469077" height="150.3932250469077" width="154.5"><g id="textblocktransform"><svg viewBox="0 0 154.5 150.3932250469077" height="150.3932250469077" width="154.5" id="textblock"><g><svg viewBox="0 0 154.5 150.3932250469077" height="150.3932250469077" width="154.5"><g transform="matrix(1,0,0,1,0,0)"><svg width="154.5" viewBox="1.5 -34.504545422625 35.3 34.36148981151" height="150.3932250469077" data-palette-color="#729343"><path d="M2.95-19.65Q2.1-20.7 1.8-21.88 1.5-23.05 1.5-24.55L1.5-24.55 1.5-25.55Q1.5-25.9 1.53-26.43 1.55-26.95 1.5-27.6L1.5-27.6Q4.35-27.7 5.68-26.65 7-25.6 7.55-23L7.55-23Q8.85-16.9 10.65-10.45L10.65-10.45Q11.1-8.9 11.8-7.73 12.5-6.55 13.75-5.7L13.75-5.7 14.4-6.55Q15.1-7.5 15.25-7.8L15.25-7.8Q16-9.25 17.25-12.25L17.25-12.25 20.15-18.5Q23.1-24.8 25.85-29.05L25.85-29.05Q27.95-32.8 31.2-34.05L31.2-34.05Q32.25-34.45 33.25-34.5L33.25-34.5Q34.35-34.55 35.4-34.05L35.4-34.05Q36.05-33.75 36.43-33.23 36.8-32.7 36.8-32.05L36.8-32.05Q36.8-31.2 36.1-30.5L36.1-30.5Q35.3-29.7 34.8-29.45L34.8-29.45Q33.45-28.8 32.52-27.78 31.6-26.75 30.9-25.7 30.2-24.65 29.95-24.3L29.95-24.3Q28-21.55 26.68-18.57 25.35-15.6 23.55-11L23.55-11 22.65-8.7Q21.75-6.4 20.9-4.7 20.05-3 18.95-1.45L18.95-1.45Q17.95-0.25 16.7-0.15L16.7-0.15Q16.15-0.1 15.4-0.4L15.4-0.4Q8.85-3 6.35-8.75L6.35-8.75Q5.5-10.7 4.85-13.03 4.2-15.35 4.05-15.8L4.05-15.8Q3.45-17.9 3.25-18.55L3.25-18.55Q3.2-18.75 3.15-19.13 3.1-19.5 2.95-19.65L2.95-19.65Z" opacity="1" transform="matrix(1,0,0,1,0,0)" fill="#729343" class="undefined-text-0" data-fill-palette-color="primary" id="text-0"></path></svg></g></svg></g></svg></g></svg></g><g></g></svg></g><defs></defs></svg><rect width="154.5" height="150.3932250469077" fill="none" stroke="none" visibility="hidden"></rect></g></svg></g></svg>