<svg xmlns="http://www.w3.org/2000/svg" version="1.1" xmlns:xlink="http://www.w3.org/1999/xlink" xmlns:svgjs="http://svgjs.dev/svgjs" width="2000" height="803" viewBox="0 0 2000 803"><g transform="matrix(1,0,0,1,-0.1566951566953776,-1.1361595744679107)"><svg viewBox="0 0 351 141" data-background-color="#ffffff" preserveAspectRatio="xMidYMid meet" height="803" width="2000" xmlns="http://www.w3.org/2000/svg" xmlns:xlink="http://www.w3.org/1999/xlink"><g id="tight-bounds" transform="matrix(1,0,0,1,0.027500000000031832,0.19949999999997203)"><svg viewBox="0 0 350.94487220173255 140.60052000000002" height="140.60052000000002" width="350.94487220173255"><g><svg viewBox="0 0 350.94487220173255 140.60052000000002" height="140.60052000000002" width="350.94487220173255"><g><svg viewBox="0 0 350.94487220173255 140.60052000000002" height="140.60052000000002" width="350.94487220173255"><g><path d="M0 140.601v-140.601h350.945v140.601z" fill="#729343" stroke="transparent" stroke-width="0" rx="0%" data-fill-palette-color="tertiary"></path><path d="M3.283 137.317v-134.034h344.379v134.034z" fill="#ffffff" stroke="transparent" stroke-width="0" rx="0%" data-fill-palette-color="quaternary"></path><path d="M9.85 130.751v-120.901h331.245v120.901z" fill="#729343" stroke="transparent" stroke-width="0" data-fill-palette-color="tertiary"></path></g><g transform="matrix(1,0,0,1,19.69974,19.69974)" id="textblocktransform"><svg viewBox="0 0 311.54539220173257 101.20104000000002" height="101.20104000000002" width="311.54539220173257" id="textblock"><g><svg viewBox="0 0 311.54539220173257 101.20104000000002" height="101.20104000000002" width="311.54539220173257"><g transform="matrix(1,0,0,1,0,0)"><svg width="311.54539220173257" viewBox="1.5 -35.20000076293945 112.15250396728516 36.43809509277344" height="101.20104000000002" data-palette-color="#ffffff"><path d="M2.95-19.65Q2.1-20.7 1.8-21.88 1.5-23.05 1.5-24.55L1.5-24.55 1.5-25.55Q1.5-25.9 1.53-26.43 1.55-26.95 1.5-27.6L1.5-27.6Q4.35-27.7 5.68-26.65 7-25.6 7.55-23L7.55-23Q8.85-16.9 10.65-10.45L10.65-10.45Q11.1-8.9 11.8-7.73 12.5-6.55 13.75-5.7L13.75-5.7 14.4-6.55Q15.1-7.5 15.25-7.8L15.25-7.8Q16-9.25 17.25-12.25L17.25-12.25 20.15-18.5Q23.1-24.8 25.85-29.05L25.85-29.05Q27.95-32.8 31.2-34.05L31.2-34.05Q32.25-34.45 33.25-34.5L33.25-34.5Q34.35-34.55 35.4-34.05L35.4-34.05Q36.05-33.75 36.43-33.23 36.8-32.7 36.8-32.05L36.8-32.05Q36.8-31.2 36.1-30.5L36.1-30.5Q35.3-29.7 34.8-29.45L34.8-29.45Q33.45-28.8 32.52-27.78 31.6-26.75 30.9-25.7 30.2-24.65 29.95-24.3L29.95-24.3Q28-21.55 26.68-18.57 25.35-15.6 23.55-11L23.55-11 22.65-8.7Q21.75-6.4 20.9-4.7 20.05-3 18.95-1.45L18.95-1.45Q17.95-0.25 16.7-0.15L16.7-0.15Q16.15-0.1 15.4-0.4L15.4-0.4Q8.85-3 6.35-8.75L6.35-8.75Q5.5-10.7 4.85-13.03 4.2-15.35 4.05-15.8L4.05-15.8Q3.45-17.9 3.25-18.55L3.25-18.55Q3.2-18.75 3.15-19.13 3.1-19.5 2.95-19.65L2.95-19.65ZM39.2-23.3Q39.1-23 38.47-22.65 37.85-22.3 37.45-22L37.45-22 36.05-22.75Q34-23.85 33.25-24.5L33.25-24.5Q32.85-24.8 32.85-25.25L32.85-25.25Q32.85-25.55 33.07-25.78 33.3-26 33.75-26L33.75-26Q35.7-26 38.5-25L38.5-25Q38.8-24.95 39.05-24.33 39.3-23.7 39.2-23.3L39.2-23.3ZM34.7-14Q34.85-14.65 34.9-14.95 34.95-15.25 34.95-15.6L34.95-15.6Q34.95-16.3 35.37-16.7 35.8-17.1 37-17.1L37-17.1Q38.4-17.1 39.47-16.23 40.55-15.35 40.8-13.95L40.8-13.95Q40.95-13.25 41-12.4 41.05-11.55 41.05-11.3L41.05-11.3 41.75-2.75Q41.9-1.4 41.37-0.68 40.85 0.05 39.4 0.05L39.4 0.05Q38.15 0.05 37.27-0.65 36.4-1.35 36.2-2.45L36.2-2.45 34.9-13.05 34.7-14ZM51.45-21.1Q51.45-20.15 51.2-18.5L51.2-18.5Q51-16.6 50.95-15.45L50.95-15.45Q51.55-15.7 52.35-16.6L52.35-16.6Q52.8-17.1 53.25-17.45L53.25-17.45Q55.45-19 57.45-19L57.45-19Q59.55-19 61.9-17.25L61.9-17.25Q65.45-14.65 65.45-11.15L65.45-11.15Q65.45-8.4 63.15-5.35L63.15-5.35Q59.85-0.9 53.85 0L53.85 0Q53.55 0.05 52.95 0.05L52.95 0.05Q52 0.05 49.8-0.35L49.8-0.35Q49.8-0.85 49.65-1.45L49.65-1.45Q50-1.6 50.57-1.88 51.15-2.15 51.6-2.2L51.6-2.2Q53.15-2.35 55.07-3.83 57-5.3 58.45-7.25 59.9-9.2 60.1-10.65L60.1-10.65Q60.15-10.85 60.2-11.2 60.25-11.55 60.25-12.05L60.25-12.05Q60.25-12.55 60.1-12.9L60.1-12.9Q59.3-14.75 58.25-15.35L58.25-15.35Q57.95-15.5 57.2-15.03 56.45-14.55 56-14L56-14Q52.7-10.4 52.1-5.75L52.1-5.75Q51.9-3.95 50.05-4L50.05-4Q48.55-4 47.3-5.23 46.05-6.45 46.05-7.95L46.05-7.95Q46-15.5 46-30.55L46-30.55Q46-31.8 46.72-32.27 47.45-32.75 48.85-33.05L48.85-33.05Q49.45-33.2 50.2-32.8 50.95-32.4 51.5-31.75 52.05-31.1 52.05-30.45L52.05-30.45Q52.05-27.5 51.6-23.1L51.6-23.1 51.45-21.1ZM79.54-7.8Q79.04-7.5 78.09-7.5L78.09-7.5Q77.74-7.5 77.24-7.55 76.74-7.6 76.39-7.55L76.39-7.55Q76.79-5.9 78.29-4.88 79.79-3.85 81.64-3.85L81.64-3.85Q83.24-3.85 84.49-4.55L84.49-4.55Q86.34-5.5 87.69-6.8L87.69-6.8Q88.64-7.75 89.49-7.75L89.49-7.75Q90.04-7.75 90.44-7.2L90.44-7.2Q90.84-6.55 90.84-5.6L90.84-5.6Q90.84-4.6 90.44-4.05L90.44-4.05Q89.14-2.05 87.07-1.3 84.99-0.55 82.24-0.55L82.24-0.55Q79.39-0.55 76.74-1.8 74.09-3.05 72.22-5.23 70.34-7.4 69.74-10.05L69.74-10.05Q69.34-11.6 69.34-13.1L69.34-13.1Q69.34-15.45 70.67-16.9 71.99-18.35 74.94-19.65L74.94-19.65Q77.64-20.8 79.94-20.8L79.94-20.8Q81.59-20.8 83.14-20.3L83.14-20.3Q87.94-18.8 87.94-16.2L87.94-16.2Q87.94-14.55 85.99-12.2L85.99-12.2Q85.04-11.1 83.74-10.25 82.44-9.4 81.22-8.72 79.99-8.05 79.54-7.8L79.54-7.8ZM81.64-17.05Q81.59-17.3 81.27-17.48 80.94-17.65 80.89-17.7L80.89-17.7Q79.54-17.8 78.14-16.93 76.74-16.05 75.82-14.7 74.89-13.35 74.89-12.1L74.89-12.1 74.94-11.7Q74.99-11.5 75.47-11.2 75.94-10.9 76.04-11L76.04-11Q79.59-13.65 81.39-15.25L81.39-15.25Q81.69-15.55 81.69-16.35L81.69-16.35Q81.69-16.85 81.64-17.05L81.64-17.05ZM99.39-22.45Q99.39-22.2 99.27-21.28 99.14-20.35 99.14-19.8L99.14-19.8Q99.14-19.4 99.24-19.3L99.24-19.3 100.69-20.7Q101.49-21.6 102.09-22.1L102.09-22.1Q103.39-23.3 104.74-23.3L104.74-23.3Q105.84-23.3 106.39-22.45L106.39-22.45Q106.69-21.95 106.69-21.3L106.69-21.3Q106.69-20.8 106.49-20.55L106.49-20.55Q105.74-19.4 103.79-17.1L103.79-17.1Q103.04-16.3 103.04-15.55L103.04-15.55Q103.04-14.85 103.74-14L103.74-14Q104.34-13.3 105.44-11.9L105.44-11.9Q107.59-9.15 109.27-7.48 110.94-5.8 113.14-4.7L113.14-4.7Q113.39-4.6 113.54-4.23 113.69-3.85 113.64-3.65L113.64-3.65Q113.59-3.4 113.24-3.15 112.89-2.9 112.64-2.95L112.64-2.95Q111.89-3.15 111.39-3.2L111.39-3.2Q108.79-3.7 107.69-4.45L107.69-4.45Q105.89-5.7 102.59-8.8L102.59-8.8Q100.59-10.65 100.54-10.7L100.54-10.7 99.64-11.55Q98.59-12.6 98.59-12.6L98.59-12.6Q98.49-12.35 98.49-11.85L98.49-11.85Q98.49-11.4 98.57-10.88 98.64-10.35 98.59-10.15L98.59-10.15Q98.29-4.55 98.19-1.95L98.19-1.95Q98.09-0.3 97.42 0.55 96.74 1.4 95.54 1.2L95.54 1.2Q95.14 1.15 94.67 0.8 94.19 0.45 94.09 0.1L94.09 0.1Q93.54-2.1 93.54-4.2L93.54-4.2Q93.54-10.25 93.69-16.25L93.69-16.25 94.19-32.55Q94.24-35.2 96.94-35.2L96.94-35.2Q98.79-35.2 99.64-34.5 100.49-33.8 100.39-32.3L100.39-32.3 99.89-27.2Q99.69-25.45 99.39-22.45L99.39-22.45Z" opacity="1" transform="matrix(1,0,0,1,0,0)" fill="#ffffff" class="undefined-text-0" data-fill-palette-color="quaternary" id="text-0"></path></svg></g></svg></g></svg></g></svg></g><g></g></svg></g><defs></defs></svg><rect width="350.94487220173255" height="140.60052000000002" fill="none" stroke="none" visibility="hidden"></rect></g></svg></g></svg>